# xmcd
#
# Track frame offsets: 
#        182
#        11715
#        23510
#        38890
#        51955
#        64755
#        78067
#        92565
#        102835
#        116090
#        129045
#        142725
#        157172
#        168702
#        180452
#        191552
#        203440
#        217495
#
# Disc length: 3027 seconds
#
# Revision: 0
# Processed by: cddbd v1.5.1PL2 Copyright (c) Steve Scherf et al.
# Submitted via: ExactAudioCopy v0.95b3
#
DISCID=ed0bd112
DTITLE=Wolf, Howlin' - All Night Long
DYEAR=1900
DGENRE=Blues
TTITLE0=Saddle My Pony
TTITLE1=Dorothy Mae
TTITLE2=Sweet Womand (I Got a Woman)
TTITLE3=I've Got a Woman
TTITLE4=Just My Kind
TTITLE5=I'm Not Joking
TTITLE6=Mama Died and Left Me
TTITLE7=All Night Boogie (All Night Long)
TTITLE8=I Love My Baby
TTITLE9=You Gonna Wreck My Life
TTITLE10=Rocking Daddy
TTITLE11=I'll Be Around
TTITLE12=Who Will Be Next
TTITLE13=I Have a Little Girl
TTITLE14=Come To Me Baby
TTITLE15=Don't Mess With My Baby
TTITLE16=You Can't Be Beat
TTITLE17=So Glad
EXTD=
EXTT0=
EXTT1=
EXTT2=
EXTT3=
EXTT4=
EXTT5=
EXTT6=
EXTT7=
EXTT8=
EXTT9=
EXTT10=
EXTT11=
EXTT12=
EXTT13=
EXTT14=
EXTT15=
EXTT16=
EXTT17=
PLAYORDER=
